<mxfile host="app.diagrams.net" modified="2022-11-03T09:24:15.398Z" agent="5.0 (Windows NT 10.0; Win64; x64) AppleWebKit/537.36 (KHTML, like Gecko) Chrome/107.0.0.0 Safari/537.36" etag="oF7pngOtPpeppVe2Nml8" version="20.0.4" type="github">
  <diagram id="ZIFV39z0oUPor_7JvzQy" name="第 1 页">
    <mxGraphModel dx="1110" dy="694" grid="1" gridSize="10" guides="1" tooltips="1" connect="1" arrows="1" fold="1" page="1" pageScale="1" pageWidth="827" pageHeight="1169" math="0" shadow="0">
      <root>
        <mxCell id="0" />
        <mxCell id="1" parent="0" />
        <mxCell id="VVky8RnMCbhL7LcCozmg-1" value="" style="rounded=1;whiteSpace=wrap;html=1;" vertex="1" parent="1">
          <mxGeometry x="150" y="90" width="530" height="190" as="geometry" />
        </mxCell>
        <mxCell id="VVky8RnMCbhL7LcCozmg-3" value="Polaris&lt;br&gt;" style="text;html=1;strokeColor=none;fillColor=none;align=center;verticalAlign=middle;whiteSpace=wrap;rounded=0;" vertex="1" parent="1">
          <mxGeometry x="160" y="160" width="60" height="30" as="geometry" />
        </mxCell>
        <mxCell id="VVky8RnMCbhL7LcCozmg-4" value="" style="rounded=1;whiteSpace=wrap;html=1;" vertex="1" parent="1">
          <mxGeometry x="150" y="380" width="520" height="80" as="geometry" />
        </mxCell>
        <mxCell id="VVky8RnMCbhL7LcCozmg-5" value="waiter" style="text;html=1;strokeColor=none;fillColor=none;align=center;verticalAlign=middle;whiteSpace=wrap;rounded=0;" vertex="1" parent="1">
          <mxGeometry x="170" y="400" width="60" height="30" as="geometry" />
        </mxCell>
      </root>
    </mxGraphModel>
  </diagram>
</mxfile>
